<svg width="823" height="259" viewBox="0 0 823 259" fill="none" xmlns="http://www.w3.org/2000/svg">
<path d="M83.3936 1.9258C88.1936 3.2258 91.7936 5.22581 94.1936 7.82581C96.5936 10.4258 97.0936 14.2258 95.7936 19.1258C94.7936 22.4258 92.7936 24.7258 89.5936 26.0258C86.3936 27.3258 82.9936 27.2258 79.3936 25.7258C74.9936 24.0258 70.4936 22.8258 66.0936 22.1258C61.5936 21.4258 57.1936 22.7258 52.7936 26.0258C49.4936 28.5258 47.4936 32.0258 46.5936 36.5258C45.6936 41.0258 45.2936 45.2258 45.2936 49.0258C45.4936 50.5258 46.0936 52.2258 46.9936 54.0258C47.9936 55.8258 48.6936 57.2258 49.2936 58.2258C51.5936 61.1258 54.6936 62.8258 58.4936 63.4258C62.2936 64.0258 66.5936 64.0258 71.2936 63.5258C75.9936 63.0258 80.0936 63.6258 83.7936 65.1258C85.4936 65.9258 86.7936 67.0258 87.6936 68.5258C88.5936 70.0258 89.0936 71.7258 89.2936 73.5258C89.4936 75.3258 89.3936 77.2258 88.9936 79.1258C88.5936 81.0258 87.9936 82.7258 87.2936 84.0258C86.0936 86.1258 84.7936 87.4258 83.0936 88.0258C81.4936 88.6258 79.6936 88.9258 77.7936 88.9258C75.8936 88.9258 73.8936 88.8258 71.8936 88.5258C69.8936 88.2258 67.8936 88.3258 65.9936 88.6258C63.8936 89.0258 61.7936 89.0258 59.6936 88.6258C57.5936 88.2258 55.4936 88.5258 53.3936 89.5258C48.9936 91.6258 46.2936 95.1258 45.3936 100.126C44.7936 103.226 44.5936 106.326 44.7936 109.626C44.9936 112.926 44.9936 116.026 44.7936 119.126C44.5936 122.426 44.4936 125.726 44.4936 129.026V138.926C44.4936 142.226 44.3936 145.726 44.1936 149.526C43.9936 153.326 43.7936 157.326 43.5936 161.326C43.3936 165.326 43.2936 169.326 43.1936 173.226C43.0936 177.126 43.1936 180.626 43.5936 183.726C43.7936 185.826 43.9936 188.026 44.1936 190.226C44.3936 192.426 44.2936 194.526 44.0936 196.426C43.7936 198.326 42.9936 200.026 41.7936 201.626C40.5936 203.126 38.6936 204.326 36.1936 205.126C32.5936 206.126 29.1936 206.026 26.1936 204.826C23.0936 203.726 20.7936 201.326 19.2936 197.626C17.5936 193.226 16.8936 188.826 17.3936 184.426C17.8936 180.026 18.2936 175.626 18.6936 171.226C18.8936 168.326 18.9936 165.526 18.9936 162.626V154.026C18.9936 149.226 19.0936 143.426 19.2936 136.626C19.4936 129.826 19.5936 124.026 19.5936 119.226C19.5936 116.926 19.6936 114.526 19.8936 111.926C20.0936 109.326 20.0936 106.726 19.9936 104.126C19.8936 101.526 19.4936 99.1258 18.6936 96.8258C17.8936 94.5258 16.5936 92.5258 14.6936 90.8258C13.5936 89.7258 12.2936 88.8258 10.9936 88.4258C9.69362 87.9258 8.39362 87.4258 7.09362 86.8258C5.79362 86.2258 4.69362 85.5258 3.49362 84.7258C2.29362 83.9258 1.49362 82.5258 0.893619 80.8258C-0.106381 78.3258 -0.206381 75.5258 0.293619 72.5258C0.893619 69.4258 2.19362 67.1258 4.29362 65.6258C5.39362 64.8258 6.69362 64.2258 7.99362 63.7258C9.29362 63.2258 10.5936 62.7258 11.8936 62.1258C13.0936 61.5258 14.1936 60.8258 15.1936 60.0258C16.1936 59.1258 16.8936 57.8258 17.4936 56.1258C18.4936 52.7258 18.7936 49.2258 18.5936 45.8258C18.3936 43.5258 18.5936 41.2258 19.2936 38.9258C19.9936 36.6258 20.6936 34.4258 21.3936 32.3258C22.6936 28.3258 24.2936 24.5258 25.9936 21.0258C27.6936 17.5258 30.1936 14.2258 33.4936 11.4258C40.1936 5.3258 47.9936 1.7258 56.9936 0.625799C65.9936 -0.474201 74.7936 -0.174198 83.3936 1.9258Z" fill="white"/>
<path d="M201.094 60.5259C206.994 62.8259 211.894 66.1259 215.594 70.3259C219.294 74.5259 222.194 79.2259 224.194 84.5259C226.194 89.8259 227.494 95.4259 228.094 101.326C228.694 107.226 228.994 113.126 228.994 118.826C228.794 126.126 228.594 133.426 228.294 140.826C227.994 148.226 227.894 155.526 227.894 162.826C227.894 165.726 228.094 168.926 228.494 172.426C228.894 175.926 229.094 179.526 229.094 183.226C229.094 186.926 228.694 190.326 227.994 193.726C227.194 197.126 225.694 199.826 223.394 201.926C219.994 205.226 216.094 206.326 211.794 205.426C207.494 204.426 204.294 202.026 202.194 198.226C200.694 195.526 199.194 193.826 197.794 193.026C196.394 192.226 194.194 192.626 191.294 194.126C188.794 195.626 186.294 197.026 183.794 198.126C181.294 199.226 178.694 200.326 175.994 201.326C170.794 203.026 165.394 204.126 159.594 204.526C153.894 204.926 148.194 204.526 142.494 203.526C136.894 202.526 131.494 200.626 126.394 198.026C121.294 195.426 116.894 192.026 113.094 187.826C109.694 184.026 106.994 179.626 105.194 174.726C103.394 169.826 102.494 164.826 102.494 159.826C102.494 154.826 103.394 149.826 105.394 145.026C107.294 140.226 110.194 136.026 113.994 132.426C117.994 128.826 122.494 125.826 127.494 123.626C132.494 121.426 137.694 119.826 143.094 118.726C148.594 117.726 154.094 117.026 159.594 116.726C165.194 116.426 170.494 116.226 175.694 116.026C177.994 116.026 180.694 116.126 183.694 116.326C186.694 116.526 189.594 116.426 192.294 116.026C194.994 115.626 197.294 114.726 199.194 113.326C201.094 111.926 202.094 109.526 202.094 106.326C201.894 100.826 200.594 95.7259 198.094 91.2259C195.594 86.7259 191.694 83.4259 186.294 81.3259C181.494 79.2259 176.494 78.2259 171.194 78.4259C165.894 78.6259 160.794 79.3259 155.794 80.4259C153.294 81.0259 150.794 81.6259 148.294 82.3259C145.794 83.0259 143.494 84.0259 141.394 85.3259C139.294 86.4259 137.294 87.8259 135.494 89.3259C133.694 90.8259 131.694 92.2259 129.594 93.3259C127.494 94.6259 125.294 95.5259 122.994 96.0259C120.694 96.5259 118.394 96.0259 116.094 94.4259C113.994 93.3259 112.394 91.6259 111.194 89.4259C109.994 87.2259 109.694 85.0259 109.994 82.6259C110.294 80.2259 111.294 78.3259 112.894 76.7259C114.394 75.1259 116.194 73.6259 118.394 72.4259C120.494 71.2259 122.694 70.1259 124.994 69.2259C127.294 68.3259 129.294 67.4259 130.994 66.5259C141.494 60.9259 152.794 57.4259 164.894 55.9259C176.994 54.4259 188.594 55.8259 199.894 60.2259L201.094 60.5259ZM202.494 155.526C202.894 150.926 202.394 146.826 201.094 143.326C199.794 139.826 196.394 137.726 190.994 137.126C185.994 136.526 180.894 136.326 175.494 136.426C170.094 136.526 164.994 136.726 159.994 137.126C155.994 137.526 151.894 138.226 147.594 139.326C143.394 140.326 139.594 141.926 136.294 144.026C132.894 146.126 130.394 148.926 128.494 152.326C126.694 155.826 126.094 160.126 126.894 165.226C127.494 169.626 129.094 173.226 131.794 176.126C134.494 179.026 137.694 181.226 141.394 182.926C145.094 184.626 148.994 185.626 153.194 186.126C157.294 186.626 161.294 186.626 165.094 186.226C169.494 185.826 173.894 184.926 178.194 183.326C182.494 181.826 186.394 179.826 189.794 177.326C193.194 174.826 196.094 171.826 198.394 168.126C200.694 164.526 202.094 160.226 202.694 155.526H202.494Z" fill="white"/>
<path d="M358.994 59.9259C360.694 61.6259 361.794 63.5259 362.194 65.5259C362.594 67.5259 362.594 69.5259 362.194 71.5259C361.794 73.5259 361.194 75.6259 360.294 77.8259C359.394 80.0259 358.494 82.1259 357.594 84.0259C354.894 89.7259 352.594 95.6259 350.594 101.526C348.594 107.426 346.194 113.326 343.594 119.026C341.494 124.026 339.494 129.026 337.694 134.126C335.894 139.226 334.094 144.226 332.394 149.226C330.294 152.826 328.194 156.826 326.194 161.126C324.194 165.426 322.294 169.726 320.594 173.926C319.094 177.726 317.894 181.626 317.094 185.526C316.294 189.426 315.094 193.226 313.394 196.826C311.494 200.626 308.694 203.126 305.094 204.326C301.494 205.426 297.694 205.026 293.894 202.926C290.594 201.026 288.594 198.526 287.894 195.426C287.094 192.326 286.294 189.226 285.294 185.926C284.194 181.726 282.494 177.626 280.394 173.726C278.294 169.826 276.394 165.826 274.694 161.826C273.194 158.026 271.594 154.226 270.094 150.626C268.594 147.026 266.994 143.226 265.494 139.426C262.194 131.226 259.094 122.926 256.194 114.626C253.194 106.326 249.894 98.1259 246.294 90.1259C245.194 87.4259 243.794 84.6259 242.294 81.8259C240.794 79.0259 239.694 76.2259 238.994 73.5259C238.294 70.8259 238.494 68.2259 239.394 65.7259C240.294 63.2259 242.594 61.0259 246.294 59.1259C248.394 58.0259 250.694 57.3259 253.094 57.1259C255.494 56.9259 257.694 57.6259 259.894 59.1259C262.394 61.0259 263.994 63.7259 264.794 67.1259C265.594 70.5259 266.494 73.6259 267.694 76.3259C269.194 80.1259 270.894 83.8259 272.694 87.2259C274.494 90.7259 276.194 94.3259 277.694 98.1259C279.194 101.926 280.594 105.726 281.694 109.426C282.794 113.126 284.294 116.826 285.994 120.526C286.794 122.426 287.694 124.926 288.894 128.026C290.094 131.126 291.494 133.826 293.194 136.226C294.894 138.626 296.894 140.326 299.094 141.226C301.294 142.226 303.994 141.526 307.294 139.226C309.794 137.326 311.494 134.626 312.294 131.026C313.194 127.526 314.094 124.426 314.994 121.726C316.294 118.126 317.594 114.426 318.694 110.826C319.794 107.226 321.294 103.626 322.994 100.226C324.894 96.4259 326.494 92.5259 327.594 88.6259C328.694 84.7259 330.394 80.9259 332.494 77.3259C334.194 74.4259 335.494 71.3259 336.194 68.0259C336.894 64.7259 338.294 61.6259 340.194 58.9259C342.494 55.7259 345.594 54.5259 349.494 55.3259C353.394 56.0259 356.594 57.6259 358.994 59.9259Z" fill="white"/>
<path d="M518.994 106.127C520.694 111.127 522.194 116.027 523.294 120.927C524.394 125.827 524.794 130.727 524.494 135.727C524.094 139.727 523.394 143.827 522.294 147.927C521.294 152.027 519.994 156.027 518.394 159.827C515.494 167.727 511.294 174.927 505.794 181.627C500.294 188.327 493.594 193.527 485.994 197.127C478.294 200.727 470.494 203.327 462.494 204.727C454.494 206.127 446.194 206.327 437.794 205.127C429.394 204.127 421.694 201.827 414.694 198.127C407.694 194.427 401.194 189.727 394.994 184.227C392.494 182.127 390.294 179.627 388.194 176.627C386.194 173.627 384.194 170.727 382.294 167.827C380.194 164.627 378.594 161.027 377.594 157.227C376.594 153.427 375.794 149.527 375.494 145.727C375.294 143.827 375.194 141.927 375.194 140.027C375.194 138.127 374.994 136.227 374.594 134.327C374.194 132.027 373.894 129.827 373.694 127.827C373.494 125.827 373.594 123.527 373.994 121.027C374.394 116.827 375.294 112.827 376.694 108.927C378.094 105.027 379.794 101.327 381.694 97.7267C384.894 91.4267 388.894 85.5267 393.594 79.9267C398.294 74.3267 403.994 70.0267 410.694 67.0267C414.494 65.3267 418.194 63.6267 421.794 62.0267C425.294 60.4267 429.094 59.1267 433.094 58.1267C440.794 56.4267 448.794 56.0267 457.194 57.0267C472.094 58.3267 484.994 63.3267 495.794 71.9267C506.694 80.6267 514.394 92.0267 518.994 106.127ZM500.094 137.427C500.694 130.127 500.194 123.027 498.694 116.027C497.194 109.027 494.294 102.727 490.094 97.2267C486.294 92.2267 481.594 88.1267 475.994 84.8267C475.194 84.4267 474.494 84.0267 473.894 83.5267C473.194 83.0267 472.494 82.7267 471.794 82.5267C470.094 81.9267 468.694 81.5267 467.594 81.2267C466.494 80.9267 465.494 80.6267 464.294 80.2267C463.194 79.8267 462.194 79.4267 461.394 79.1267C458.494 78.2267 456.094 78.0267 454.094 78.5267C452.094 79.0267 449.594 79.5267 446.794 79.6267C444.494 79.8267 442.194 79.9267 439.894 79.9267C437.594 79.9267 435.294 80.3267 432.994 81.0267C428.794 82.3267 424.894 84.3267 421.194 86.9267C417.594 89.5267 414.294 92.4267 411.394 95.7267C404.694 103.627 400.494 112.627 398.794 123.027C398.394 124.527 398.094 126.027 397.894 127.527C397.694 128.927 397.694 130.427 397.894 132.027C397.894 132.627 397.994 133.527 398.294 134.927C398.594 136.227 398.694 137.127 398.694 137.527C398.694 142.927 399.694 148.127 401.894 153.327C404.394 159.027 407.694 164.127 411.894 168.427C416.094 172.727 420.894 176.227 426.094 178.727C431.394 181.327 436.994 182.927 442.994 183.427C448.994 184.027 455.094 183.427 461.194 181.727C466.394 180.227 471.294 178.127 475.994 175.427C480.694 172.727 484.994 169.527 488.794 165.627C492.594 161.827 495.294 157.427 496.794 152.527C498.294 147.627 499.494 142.627 500.094 137.427Z" fill="white"/>
<path d="M619.794 71.7255C621.494 75.1255 621.694 78.6255 620.194 81.9255C618.794 85.3255 616.294 87.5255 612.894 88.7255C610.794 89.5255 608.494 89.7255 605.994 89.4255C603.494 89.1255 601.094 89.2255 598.794 89.5255C597.094 89.9255 595.394 90.2255 593.794 90.5255C592.194 90.8255 590.594 91.2255 589.094 91.8255C576.594 96.6255 568.594 105.426 564.994 118.226C563.094 124.926 562.294 131.926 562.694 139.226C563.094 146.526 562.894 153.626 562.094 160.426C561.694 163.326 561.494 166.126 561.394 168.926C561.294 171.726 561.394 174.526 561.494 177.426C561.694 180.526 561.794 183.726 561.894 187.226C561.994 190.726 561.694 193.925 561.194 197.025C560.594 200.525 558.994 202.826 556.494 204.025C553.894 205.225 551.094 205.626 547.994 205.025C544.894 204.425 542.194 203.126 539.694 201.025C537.194 198.925 535.794 196.326 535.394 193.226C534.794 188.826 534.994 184.426 535.994 180.126C536.994 175.826 537.394 171.426 537.394 167.026C537.394 162.226 537.194 157.426 536.794 152.626C536.394 147.826 536.094 143.026 535.894 138.226C535.494 129.826 535.594 121.426 535.994 113.126C536.494 104.826 536.494 96.3255 536.094 87.7255C535.894 84.3255 535.794 80.6255 535.794 76.8255C535.794 73.0255 537.294 69.9255 540.394 67.6255C543.994 64.9255 548.194 63.9255 552.994 64.4255C558.194 65.0255 561.394 67.5255 562.794 71.9255C563.194 73.4255 563.594 74.9255 563.994 76.2255C564.394 77.5255 565.594 78.2255 567.694 78.2255C569.194 78.2255 570.794 77.4255 572.394 75.9255C573.994 74.4255 575.494 73.2255 576.894 72.5255C579.194 71.2255 582.394 69.7255 586.694 68.1255C590.894 66.5255 595.194 65.3255 599.494 64.5255C603.794 63.7255 607.894 63.8255 611.694 64.8255C615.594 65.7255 618.294 68.0255 619.794 71.7255Z" fill="white"/>
<path d="M658.894 33.5248C657.594 36.2248 655.594 38.1248 652.894 39.4248C650.194 40.6248 647.494 41.3248 644.694 41.3248C641.894 41.3248 639.294 40.6248 636.894 39.3248C634.494 38.0248 632.994 36.0248 632.394 33.6248C631.994 32.6248 631.694 31.6248 631.394 30.6248C631.094 29.5248 630.994 28.5248 630.994 27.6248C630.994 26.5248 631.094 25.3248 631.394 24.2248C631.694 23.1248 631.994 22.0248 632.394 21.0248C633.394 18.3248 635.094 16.4248 637.594 15.1248C640.094 13.9248 642.794 13.3248 645.594 13.4248C648.394 13.5248 651.094 14.2248 653.594 15.6248C656.094 17.0248 657.694 18.9248 658.494 21.3248C659.094 22.8248 659.394 24.5248 659.394 26.2248L659.694 26.8248C659.894 28.1248 659.894 29.3248 659.794 30.4248C659.694 31.5248 659.294 32.8248 658.494 34.3248L658.894 33.5248ZM660.594 70.2248C661.594 74.2248 661.894 78.3248 661.594 82.4248C661.294 86.5248 661.194 90.6248 661.194 94.6248C661.194 98.6248 661.294 102.325 661.494 106.225C661.694 110.125 661.594 114.025 661.194 117.825C660.794 123.525 660.494 129.325 660.194 135.025C659.894 140.725 659.594 146.525 659.194 152.225C658.794 156.625 658.594 161.125 658.494 165.625C658.394 170.125 658.494 174.625 658.594 179.025C658.594 181.525 658.694 184.125 658.894 186.825C659.094 189.525 658.994 192.025 658.594 194.425C658.194 196.825 657.294 198.925 655.794 200.725C654.294 202.525 651.894 203.725 648.694 204.325C646.394 204.725 643.994 204.625 641.494 204.225C638.894 203.725 636.894 202.625 635.394 200.925C634.094 199.625 633.394 198.125 633.294 196.625C633.194 195.125 633.194 193.425 633.194 191.725C633.394 187.325 633.594 183.025 633.794 178.825C633.994 174.625 634.094 170.325 634.094 165.925C634.094 154.025 634.094 142.325 634.194 130.725C634.294 119.125 634.494 107.425 634.894 95.5248C634.894 93.2248 634.694 90.6248 634.294 87.6248C633.894 84.6248 633.694 81.7248 633.694 78.8248C633.694 75.9248 634.194 73.3248 635.094 70.9248C636.094 68.5248 637.894 66.6248 640.794 65.3248C642.294 64.5248 644.094 64.1248 645.994 63.9248C647.994 63.7248 649.894 63.8248 651.794 64.2248C653.694 64.6248 655.394 65.3248 656.994 66.2248C658.594 67.2248 659.794 68.5248 660.594 70.2248Z" fill="white"/>
<path d="M811.394 99.2264C812.394 101.926 813.094 104.526 813.694 107.126C814.294 109.726 814.394 112.426 813.994 115.326C813.394 119.126 812.194 122.526 810.394 125.326C808.594 128.126 806.294 130.626 803.594 132.626C800.894 134.626 797.894 136.226 794.594 137.326C791.294 138.426 787.794 139.126 784.094 139.326C776.994 139.926 769.894 140.126 762.694 139.926C755.494 139.726 748.394 139.726 741.294 139.926C737.694 139.926 734.094 140.026 730.494 140.226C726.994 140.426 723.394 140.626 719.694 140.826C716.994 141.026 714.494 141.226 712.194 141.426C709.894 141.626 707.794 142.726 705.894 144.926C703.794 147.026 702.594 149.226 702.394 151.426C702.194 153.626 702.594 155.826 703.694 158.026C704.694 160.226 706.094 162.326 707.694 164.226C709.294 166.126 710.994 167.726 712.694 169.126C717.094 172.926 721.994 176.026 727.394 178.426C732.794 180.826 738.394 182.126 744.294 182.326C749.794 182.526 755.094 181.626 759.994 179.726C764.894 177.826 769.594 175.526 774.194 172.826C775.894 171.826 777.694 170.726 779.494 169.326C781.294 168.026 783.194 166.826 785.194 165.826C787.194 164.826 789.194 164.226 791.194 163.826C793.194 163.426 795.294 163.726 797.394 164.726C801.794 166.826 804.494 170.026 805.594 174.226C806.594 178.426 805.194 182.226 801.094 185.426C797.594 188.126 793.894 190.526 789.894 192.726C785.894 194.926 781.894 196.926 777.794 198.626C766.294 203.626 754.294 205.526 741.794 204.326C729.294 203.226 717.794 199.626 707.294 193.726C696.894 187.826 688.294 179.726 681.494 169.626C674.694 159.526 671.194 147.826 670.994 134.626V122.726C670.994 118.726 671.494 114.826 672.394 110.926C673.394 107.426 674.694 104.226 676.394 101.126C678.094 98.0264 679.894 95.0264 681.594 91.9264C684.794 86.3264 688.694 81.1264 693.094 76.1264C697.494 71.1264 702.694 67.3264 708.594 64.6264C715.094 61.5264 721.894 59.2264 728.794 57.7264C735.694 56.2264 742.794 55.6264 749.894 55.8264C756.994 56.1264 763.894 57.3264 770.694 59.5264C777.494 61.7264 783.994 64.9264 790.094 69.1264C795.294 72.7264 799.494 77.2264 802.694 82.6264C806.294 88.2264 809.094 93.7264 811.394 99.2264ZM782.094 114.526C783.994 113.526 785.294 112.326 785.994 110.826C786.694 109.326 786.894 107.626 786.694 105.926C786.494 104.226 785.994 102.526 785.294 100.926C784.494 99.3264 783.794 97.7264 782.994 96.2264C780.294 91.8264 777.194 88.3264 773.694 85.6264C770.194 82.9264 766.294 81.0264 762.194 79.7264C758.094 78.5264 753.694 77.8264 749.094 77.8264C744.494 77.8264 739.794 78.3264 734.994 79.2264C732.094 79.8264 728.594 81.0264 724.394 82.8264C720.194 84.6264 716.394 86.9264 712.894 89.7264C709.394 92.5264 706.894 95.6264 705.094 99.0264C703.394 102.526 703.594 106.126 705.694 109.926C707.594 113.426 710.294 115.426 713.694 115.926C717.094 116.426 720.594 116.726 723.994 116.526C729.194 116.326 734.294 116.126 739.394 115.826C744.494 115.526 749.594 115.426 754.794 115.426H762.994C765.794 115.426 768.494 115.526 771.194 115.726C772.894 115.726 774.694 115.826 776.494 116.026C778.294 116.226 779.994 115.826 781.494 114.926L782.094 114.526Z" fill="white"/>
<path d="M444.394 257.326L440.194 256.826C438.994 256.826 437.794 256.726 436.594 256.526C435.394 256.326 434.094 256.126 432.694 256.026C432.494 256.026 432.294 256.026 432.194 256.126C431.994 256.226 431.794 256.226 431.394 256.226C430.494 256.226 429.394 256.126 428.094 255.926C426.794 255.726 425.494 255.526 424.294 255.426C423.094 255.226 421.894 255.026 420.894 254.826C419.894 254.526 419.294 254.426 419.094 254.426C417.694 253.926 416.494 253.626 415.594 253.626C414.694 253.626 413.494 253.426 412.094 253.126C406.694 251.226 400.894 249.726 394.594 248.826C388.294 247.826 381.494 246.226 373.994 244.026L369.594 242.726C367.194 241.826 364.894 240.926 362.794 239.826C360.694 238.726 359.394 236.826 358.894 233.826V231.726C358.894 231.026 359.094 230.126 359.494 229.026C359.894 227.926 360.494 226.826 361.294 225.726C362.094 224.726 362.994 223.726 364.194 223.026C365.394 222.326 366.594 221.826 367.994 221.826C368.494 221.826 369.394 222.026 370.494 222.326C371.594 222.726 372.894 223.126 374.394 223.626C375.894 224.126 377.394 224.726 379.094 225.326C380.694 225.926 382.294 226.626 383.694 227.326L389.694 229.126C390.694 229.526 392.294 230.026 394.294 230.826C396.294 231.626 397.994 232.026 399.394 232.026C399.594 232.026 399.694 232.026 399.794 231.926C399.894 231.826 399.994 231.826 400.194 231.826C401.194 231.826 403.594 232.126 407.194 232.626C410.794 233.126 414.794 233.726 418.994 234.326C423.194 234.926 426.994 235.526 430.594 236.026C434.194 236.526 436.294 236.826 436.994 236.826H444.694C447.194 236.826 449.994 237.026 452.894 237.326C456.594 237.326 460.194 237.226 463.894 237.026C466.894 236.826 470.094 236.626 473.594 236.226C477.094 235.826 479.994 235.526 482.494 235.226L486.694 234.226C491.394 233.726 495.494 233.126 498.794 232.526C502.194 231.926 505.794 231.026 509.594 229.926C513.394 228.826 516.994 227.426 520.294 225.926L528.894 223.326C529.894 222.826 530.994 222.526 531.994 222.526C534.294 222.526 536.394 223.526 538.494 225.426C540.594 227.326 541.594 229.826 541.594 232.726C541.594 234.626 540.994 236.326 539.794 237.826C538.594 239.326 537.394 240.326 536.094 240.826C535.094 241.026 533.594 241.526 531.694 242.426C529.794 243.326 527.694 244.126 525.294 245.026C522.994 245.926 520.494 246.626 517.894 247.426C515.294 248.126 512.694 248.426 510.094 248.426C502.094 249.826 495.994 251.126 491.694 252.426C487.394 253.726 484.294 254.426 482.394 254.426C477.394 255.326 472.494 256.026 467.894 256.526C463.294 257.026 460.194 257.426 458.594 257.526L444.394 257.326Z" fill="white"/>
<path d="M595.494 252.025C595.994 252.025 596.494 252.425 596.494 253.025C596.494 253.625 595.994 254.025 595.494 254.025H586.094C585.394 254.025 584.894 253.525 584.894 252.825V237.325C584.894 236.625 585.394 236.125 586.094 236.125H595.294C595.794 236.125 596.294 236.525 596.294 237.125C596.294 237.725 595.794 238.125 595.294 238.125H587.094V244.225H592.894C593.394 244.225 593.894 244.625 593.894 245.125C593.894 245.625 593.494 246.025 592.894 246.025H587.094V252.225L595.494 252.025Z" fill="white"/>
<path d="M608.594 241.525C608.594 241.725 608.494 241.825 608.494 242.025L603.594 253.125C603.394 253.625 603.094 253.925 602.494 253.925C601.894 253.925 601.694 253.625 601.494 253.125L596.594 242.025C596.594 241.925 596.494 241.725 596.494 241.525C596.494 241.025 596.894 240.525 597.494 240.525C597.894 240.525 598.294 240.725 598.494 241.225L602.594 250.825L606.694 241.225C606.894 240.725 607.294 240.525 607.694 240.525C608.194 240.625 608.694 241.025 608.594 241.525Z" fill="white"/>
<path d="M621.994 246.925C621.994 247.725 621.494 248.125 620.594 248.125H611.194C611.394 251.025 613.594 252.325 615.794 252.325C616.994 252.325 617.894 252.025 618.794 251.325C619.194 251.025 619.394 250.925 619.694 250.925C620.194 250.925 620.494 251.225 620.494 251.725C620.494 252.025 620.394 252.325 619.894 252.725C618.894 253.625 617.394 254.125 615.794 254.125C612.494 254.125 608.994 252.025 608.994 247.325C608.994 242.625 612.594 240.525 615.494 240.525C618.394 240.525 621.994 242.825 621.994 246.925ZM611.194 246.525H619.894C619.694 243.625 617.494 242.425 615.594 242.425C613.694 242.425 611.494 243.625 611.194 246.525Z" fill="white"/>
<path d="M631.694 241.525C631.694 242.125 631.194 242.525 630.294 242.525C627.894 242.525 626.294 244.425 625.994 246.025V253.025C625.994 253.625 625.494 254.125 624.994 254.125C624.494 254.125 623.894 253.625 623.894 253.025V241.625C623.894 241.025 624.394 240.525 624.994 240.525C625.594 240.525 625.994 241.025 625.994 241.625V243.725C626.194 242.825 627.794 240.525 630.494 240.525C631.294 240.525 631.694 240.925 631.694 241.525Z" fill="white"/>
<path d="M644.994 241.526C644.994 241.726 644.994 241.826 644.894 242.026L637.894 258.226C637.694 258.726 637.294 258.926 636.894 258.926C636.294 258.926 635.894 258.426 635.894 257.926C635.894 257.726 635.894 257.626 635.994 257.426L637.694 253.426L632.694 241.926C632.694 241.826 632.594 241.626 632.594 241.426C632.594 240.926 632.994 240.426 633.594 240.426C633.994 240.426 634.394 240.626 634.594 241.126L638.794 250.926L642.994 241.126C643.194 240.626 643.594 240.426 643.994 240.426C644.494 240.626 644.994 241.026 644.994 241.526Z" fill="white"/>
<path d="M658.693 247.325C658.693 251.925 654.993 254.125 651.993 254.125C648.993 254.125 645.293 251.925 645.293 247.325C645.293 242.725 648.993 240.525 651.993 240.525C654.993 240.525 658.693 242.825 658.693 247.325ZM647.393 247.325C647.393 250.625 649.793 252.225 651.893 252.225C653.993 252.225 656.393 250.525 656.393 247.325C656.393 244.125 653.993 242.325 651.893 242.325C649.793 242.325 647.393 244.025 647.393 247.325Z" fill="white"/>
<path d="M672.494 246.226V253.026C672.494 253.626 671.994 254.126 671.394 254.126C670.794 254.126 670.394 253.626 670.394 253.026V246.226C670.394 243.426 668.694 242.426 666.894 242.426C664.294 242.426 662.994 244.626 662.694 246.126V253.126C662.694 253.726 662.194 254.226 661.694 254.226C661.194 254.226 660.594 253.726 660.594 253.126V241.726C660.594 241.126 661.094 240.626 661.694 240.626C662.294 240.626 662.694 241.126 662.694 241.726V243.826C662.894 242.926 664.394 240.626 667.494 240.626C669.894 240.526 672.494 241.926 672.494 246.226Z" fill="white"/>
<path d="M687.293 246.925C687.293 247.725 686.793 248.125 685.893 248.125H676.493C676.693 251.025 678.893 252.325 681.093 252.325C682.293 252.325 683.193 252.025 684.093 251.325C684.493 251.025 684.693 250.925 684.993 250.925C685.493 250.925 685.793 251.225 685.793 251.725C685.793 252.025 685.693 252.325 685.193 252.725C684.193 253.625 682.693 254.125 681.093 254.125C677.793 254.125 674.293 252.025 674.293 247.325C674.293 242.625 677.893 240.525 680.793 240.525C683.693 240.525 687.293 242.825 687.293 246.925ZM676.593 246.525H685.293C685.093 243.625 682.893 242.425 680.993 242.425C679.093 242.425 676.793 243.625 676.593 246.525Z" fill="white"/>
<path d="M688.193 240.925L689.593 236.925C689.793 236.325 690.193 236.125 690.693 236.125H691.493C692.093 236.125 692.193 236.525 691.893 237.125L689.893 241.225C689.693 241.725 689.293 241.825 688.893 241.825H688.693C688.193 241.725 687.993 241.425 688.193 240.925Z" fill="white"/>
<path d="M700.493 242.526C700.693 242.826 700.793 243.026 700.793 243.326C700.793 243.826 700.393 244.126 699.893 244.126C699.493 244.126 699.293 244.026 698.893 243.526C698.393 242.826 697.493 242.226 696.193 242.226C694.693 242.226 693.693 243.026 693.693 244.126C693.693 244.926 694.293 245.726 695.793 246.026L697.393 246.426C699.693 247.026 701.193 248.026 701.193 250.026C701.193 252.626 698.693 253.926 696.093 253.926C693.893 253.926 692.193 252.926 691.593 251.726C691.493 251.526 691.193 251.126 691.193 250.726C691.193 250.226 691.493 249.826 692.093 249.826C692.593 249.826 692.793 250.126 692.993 250.426C693.593 251.626 694.793 252.126 696.093 252.126C697.793 252.126 699.093 251.426 699.093 250.126C699.093 249.126 698.293 248.526 696.993 248.226L695.093 247.726C692.693 247.126 691.593 245.726 691.593 244.126C691.593 241.926 693.593 240.426 696.093 240.426C698.193 240.526 699.693 241.326 700.493 242.526Z" fill="white"/>
<path d="M719.693 237.926H711.493V244.126H718.193C718.693 244.126 719.193 244.526 719.193 245.026C719.193 245.526 718.693 245.926 718.193 245.926H711.493V252.826C711.493 253.426 710.993 253.926 710.393 253.926C709.793 253.926 709.293 253.426 709.293 252.826V237.126C709.293 236.426 709.793 235.926 710.493 235.926H719.693C720.193 235.926 720.693 236.326 720.693 236.926C720.693 237.526 720.193 237.926 719.693 237.926Z" fill="white"/>
<path d="M731.794 243.227V241.727C731.794 241.127 732.294 240.627 732.794 240.627C733.394 240.627 733.894 241.127 733.894 241.727V253.127C733.894 253.727 733.394 254.227 732.794 254.227C732.194 254.227 731.794 253.727 731.794 253.127V251.327C731.294 252.927 729.494 254.227 727.294 254.227C724.494 254.227 720.994 252.027 720.994 247.427C720.994 242.827 724.494 240.627 727.294 240.627C729.194 240.527 730.994 241.427 731.794 243.227ZM731.894 247.327C731.894 243.827 729.594 242.327 727.594 242.327C725.594 242.327 723.094 243.927 723.094 247.327C723.094 250.727 725.494 252.327 727.594 252.327C729.694 252.327 731.894 250.727 731.894 247.327Z" fill="white"/>
<path d="M747.494 241.525C747.494 241.725 747.394 241.825 747.394 242.025L742.494 253.125C742.294 253.625 741.994 253.925 741.394 253.925C740.794 253.925 740.594 253.625 740.394 253.125L735.494 242.025C735.494 241.925 735.394 241.725 735.394 241.525C735.394 241.025 735.794 240.525 736.394 240.525C736.794 240.525 737.194 240.725 737.394 241.225L741.494 250.825L745.594 241.225C745.794 240.725 746.194 240.525 746.594 240.525C746.994 240.625 747.494 241.025 747.494 241.525Z" fill="white"/>
<path d="M761.193 247.325C761.193 251.925 757.493 254.125 754.493 254.125C751.493 254.125 747.793 251.925 747.793 247.325C747.793 242.725 751.493 240.525 754.493 240.525C757.493 240.525 761.193 242.825 761.193 247.325ZM749.893 247.325C749.893 250.625 752.293 252.225 754.393 252.225C756.493 252.225 758.893 250.525 758.893 247.325C758.893 244.125 756.493 242.325 754.393 242.325C752.293 242.325 749.893 244.025 749.893 247.325Z" fill="white"/>
<path d="M772.194 241.525C772.194 242.125 771.694 242.525 770.794 242.525C768.394 242.525 766.794 244.425 766.494 246.025V253.025C766.494 253.625 765.994 254.125 765.494 254.125C764.994 254.125 764.394 253.625 764.394 253.025V241.625C764.394 241.025 764.894 240.525 765.494 240.525C766.094 240.525 766.494 241.025 766.494 241.625V243.725C766.694 242.825 768.294 240.525 770.994 240.525C771.794 240.525 772.194 240.925 772.194 241.525Z" fill="white"/>
<path d="M773.894 236.526C773.894 235.926 774.394 235.426 774.994 235.426C775.594 235.426 776.094 235.926 776.094 236.526C776.094 237.126 775.594 237.626 774.994 237.626C774.394 237.626 773.894 237.126 773.894 236.526ZM776.094 241.626V253.026C776.094 253.626 775.594 254.126 775.094 254.126C774.594 254.126 773.994 253.626 773.994 253.026V241.626C773.994 241.026 774.494 240.526 775.094 240.526C775.694 240.526 776.094 241.026 776.094 241.626Z" fill="white"/>
<path d="M784.594 252.826C784.594 253.726 783.394 254.026 782.194 254.026C780.794 254.026 779.494 253.526 779.494 251.126V242.326H778.394C777.894 242.326 777.494 241.926 777.494 241.426C777.494 240.926 777.894 240.526 778.394 240.526H779.494V238.326C779.494 237.726 779.994 237.326 780.594 237.326C781.194 237.326 781.594 237.826 781.594 238.326V240.526H783.594C784.094 240.526 784.494 240.826 784.494 241.426C784.494 242.026 784.094 242.326 783.594 242.326H781.594V251.026C781.594 251.826 781.894 252.126 782.594 252.126C782.994 252.126 783.294 252.026 783.594 252.026C784.194 251.926 784.594 252.326 784.594 252.826Z" fill="white"/>
<path d="M798.494 246.925C798.494 247.725 797.994 248.125 797.094 248.125H787.694C787.894 251.025 790.094 252.325 792.294 252.325C793.494 252.325 794.394 252.025 795.294 251.325C795.694 251.025 795.894 250.925 796.194 250.925C796.694 250.925 796.994 251.225 796.994 251.725C796.994 252.025 796.894 252.325 796.394 252.725C795.394 253.625 793.894 254.125 792.294 254.125C788.994 254.125 785.494 252.025 785.494 247.325C785.494 242.625 789.094 240.525 791.994 240.525C794.894 240.525 798.494 242.825 798.494 246.925ZM787.694 246.525H796.394C796.194 243.625 793.994 242.425 792.094 242.425C790.194 242.425 787.894 243.625 787.694 246.525Z" fill="white"/>
<path d="M799.094 252.726C799.094 252.026 799.694 251.426 800.394 251.426C801.094 251.426 801.694 252.026 801.694 252.726C801.694 253.426 801.094 254.026 800.394 254.026C799.694 254.026 799.094 253.426 799.094 252.726Z" fill="white"/>
<path d="M802.793 252.726C802.793 252.026 803.393 251.426 804.093 251.426C804.793 251.426 805.393 252.026 805.393 252.726C805.393 253.426 804.793 254.026 804.093 254.026C803.393 254.026 802.793 253.426 802.793 252.726Z" fill="white"/>
<path d="M806.594 252.726C806.594 252.026 807.194 251.426 807.894 251.426C808.594 251.426 809.194 252.026 809.194 252.726C809.194 253.426 808.594 254.026 807.894 254.026C807.194 254.026 806.594 253.426 806.594 252.726Z" fill="white"/>
<path d="M822.093 56.9262C822.093 61.1262 818.693 64.0262 815.193 64.0262C811.693 64.0262 808.293 61.1262 808.293 56.9262C808.293 52.7262 811.693 49.8262 815.193 49.8262C818.693 49.8262 822.093 52.7262 822.093 56.9262ZM809.293 56.9262C809.293 60.5262 812.193 63.0262 815.193 63.0262C818.193 63.0262 821.093 60.5262 821.093 56.9262C821.093 53.3262 818.193 50.8262 815.193 50.8262C812.193 50.8262 809.293 53.2262 809.293 56.9262ZM818.093 55.3262C818.093 56.5262 817.293 57.4262 815.893 57.7262L818.193 60.7262H817.193L814.993 57.8262H813.393V60.7262H812.593V52.9262H815.193C816.993 52.9262 818.093 53.9262 818.093 55.3262ZM813.393 53.7262V57.0262H815.193C816.493 57.0262 817.193 56.4262 817.193 55.4262C817.193 54.4262 816.393 53.7262 815.193 53.7262H813.393Z" fill="white"/>
</svg>
