<svg width="1633" height="1023" viewBox="0 0 1633 1023" fill="none" xmlns="http://www.w3.org/2000/svg">
<path d="M398.2 116.596C402.2 128.296 405.6 139.896 408.3 151.396C411 162.896 411.9 174.496 411 186.196C410.1 195.696 408.4 205.196 405.9 214.896C403.4 224.596 400.4 233.896 396.8 242.896C390 261.396 380.1 278.496 367.1 294.196C354 309.996 338.5 322.096 320.5 330.696C302.5 339.296 284 345.196 265.1 348.596C246.2 351.996 226.8 352.296 207 349.596C187.2 347.396 169.1 341.796 152.6 333.096C136.2 324.296 120.8 313.396 106.4 300.396C100.5 295.396 95.3 289.496 90.5 282.496C85.8 275.496 81.1001 268.696 76.7001 261.896C71.7001 254.296 68.0001 245.896 65.6001 236.896C63.1001 227.896 61.4 218.896 60.5 209.896C60 205.396 59.8001 200.896 59.8001 196.396C59.8001 191.896 59.3 187.396 58.4 182.896C57.5 177.496 56.8 172.396 56.4 167.696C55.9 162.996 56.2001 157.696 57.1001 151.796C58.0001 141.896 60.1 132.496 63.5 123.396C66.9 114.396 70.8001 105.596 75.3001 97.0956C82.9001 82.1956 92.3001 68.2956 103.3 55.1956C114.3 42.1956 127.7 31.9956 143.5 24.7956C152.5 20.6956 161.2 16.7956 169.5 12.9956C177.8 9.19561 186.7 6.09561 196.2 3.89561C214.2 -0.204393 233.1 -1.0044 252.9 1.1956C288 4.3956 318.3 15.9956 343.7 36.2956C369.2 56.4956 387.4 83.2956 398.2 116.596ZM353.6 190.196C354.9 173.096 353.8 156.296 350.2 139.896C346.6 123.496 339.8 108.696 329.9 95.6956C320.9 83.9956 309.9 74.2956 296.8 66.6956C295 65.7956 293.3 64.7956 291.7 63.6956C290.1 62.5956 288.4 61.7956 286.6 61.2956C282.6 59.8956 279.3 58.8956 276.8 58.2956C274.3 57.5956 271.7 56.7956 269 55.8956C266.3 54.9956 264 54.0956 262.2 53.1956C255.4 50.9956 249.7 50.4956 245 51.7956C240.3 53.1956 234.5 54.0956 227.8 54.4956C222.4 54.9956 217 55.1956 211.6 55.1956C206.2 55.1956 200.8 56.0956 195.4 57.8956C185.5 61.0956 176.3 65.6956 167.7 71.6956C159.2 77.7956 151.5 84.5956 144.7 92.2956C128.9 110.796 119 132.096 115 156.396C114.1 159.996 113.4 163.496 113 166.896C112.5 170.296 112.5 173.796 113 177.396C113 178.796 113.3 180.996 114 184.196C114.7 187.396 115 189.396 115 190.296C115 202.896 117.5 215.296 122.4 227.396C128.2 240.896 136.1 252.696 146 262.796C155.9 272.896 167 280.996 179.4 287.096C191.8 293.196 205.1 296.896 219.2 298.196C233.4 299.596 247.7 298.196 262.1 294.196C274.2 290.596 285.8 285.696 296.9 279.296C307.9 272.996 317.9 265.396 326.9 256.296C335.9 247.296 342.2 237.096 345.8 225.596C349.8 214.196 352.3 202.296 353.6 190.196Z" fill="#FFCB00"/>
<path d="M220.3 471.896L210.5 470.696C207.6 470.696 204.8 470.496 201.9 470.096C199 469.696 196 469.296 192.7 468.896C192.3 468.896 191.9 468.996 191.5 469.196C191.1 469.396 190.5 469.496 189.7 469.496C187.6 469.496 185.1 469.296 182 468.896C178.9 468.496 176 468.096 173.1 467.696C170.2 467.296 167.6 466.796 165.1 466.196C162.6 465.596 161.2 465.296 160.8 465.296C157.5 464.096 154.8 463.496 152.5 463.496C150.2 463.496 147.5 463.096 144.2 462.296C131.5 457.796 117.8 454.396 103.1 452.196C88.4 449.996 72.2 446.196 54.6 440.896L44.2 437.796C38.5 435.796 33.1 433.496 28.2 430.996C23.3 428.496 20.2 423.796 19 416.896V411.996C19 410.396 19.5 408.196 20.5 405.596C21.5 402.896 22.9 400.396 24.8 397.896C26.6 395.396 28.9 393.296 31.6 391.396C34.2 389.596 37.2 388.596 40.5 388.596C41.7 388.596 43.7 388.996 46.3 389.796C49 390.596 52 391.596 55.5 392.896C59 394.096 62.7 395.396 66.5 396.896C70.4 398.296 74 399.896 77.2 401.496L91.3 405.796C93.8 406.596 97.3 407.896 102 409.796C106.7 411.596 110.7 412.596 114 412.596C114.4 412.596 114.7 412.496 114.9 412.296C115.1 412.096 115.4 411.996 115.8 411.996C118.3 411.996 123.8 412.596 132.4 413.796C141 414.996 150.2 416.296 160 417.796C169.8 419.196 178.9 420.596 187.3 421.796C195.7 422.996 200.7 423.596 202.3 423.596H220.6C226.5 423.596 233 423.996 239.9 424.796C248.5 424.796 257.1 424.596 265.7 424.196C272.7 423.796 280.2 423.196 288.4 422.396C296.6 421.596 303.5 420.796 309.3 419.896L319.1 417.396C330.1 416.196 339.7 414.796 347.6 413.396C355.6 411.996 364.1 409.896 373.1 407.296C382.1 404.596 390.5 401.496 398.3 397.796L418.5 391.696C421 390.496 423.4 389.896 425.9 389.896C431.2 389.896 436.3 392.096 441.2 396.696C446.1 401.196 448.6 406.896 448.6 413.896C448.6 418.396 447.2 422.396 444.3 425.896C441.4 429.396 438.6 431.696 435.7 432.996C433.2 433.396 429.8 434.596 425.3 436.696C420.8 438.696 415.8 440.796 410.3 442.796C404.8 444.796 398.9 446.696 392.8 448.296C386.7 449.896 380.5 450.796 374.4 450.796C355.6 454.096 341.2 457.196 331.1 460.296C321.1 463.396 313.8 464.896 309.3 464.896C297.4 466.896 286.1 468.596 275.2 469.796C264.3 470.996 257.1 471.796 253.4 472.296L220.3 471.896Z" fill="#FFCB00"/>
<path d="M379.2 627.596C383.2 639.296 386.6 650.896 389.3 662.396C392 673.896 392.9 685.496 392 697.196C391.1 706.696 389.4 716.196 386.9 725.896C384.4 735.596 381.4 744.896 377.8 753.896C371 772.396 361.1 789.496 348.1 805.196C335 820.996 319.5 833.096 301.5 841.696C283.5 850.296 265 856.196 246.1 859.596C227.2 862.996 207.8 863.296 188 860.596C168.2 858.396 150.1 852.796 133.6 844.096C117.2 835.296 101.8 824.396 87.4 811.396C81.5 806.396 76.3 800.496 71.5 793.496C66.8 786.496 62.1001 779.696 57.7001 772.896C52.7001 765.296 49.0001 756.896 46.6001 747.896C44.1001 738.896 42.4 729.896 41.5 720.896C41 716.396 40.8001 711.896 40.8001 707.396C40.8001 702.896 40.3 698.396 39.4 693.896C38.5 688.496 37.8 683.396 37.4 678.696C36.9 673.996 37.2001 668.696 38.1001 662.796C39.0001 652.896 41.1 643.496 44.5 634.396C47.9 625.396 51.8001 616.596 56.3001 608.096C63.9001 593.196 73.3001 579.296 84.3001 566.196C95.3001 553.196 108.7 542.996 124.5 535.796C133.5 531.696 142.2 527.796 150.5 523.996C158.8 520.196 167.7 517.096 177.2 514.896C195.2 510.796 214.1 509.996 233.9 512.196C269 515.396 299.3 526.996 324.7 547.296C350.2 567.496 368.4 594.296 379.2 627.596ZM334.6 701.196C335.9 684.096 334.8 667.296 331.2 650.896C327.6 634.496 320.8 619.696 310.9 606.696C301.9 594.996 290.9 585.296 277.8 577.696C276 576.796 274.3 575.796 272.7 574.696C271.1 573.596 269.4 572.796 267.6 572.296C263.6 570.896 260.3 569.896 257.8 569.296C255.3 568.596 252.7 567.796 250 566.896C247.3 565.996 245 565.096 243.2 564.196C236.4 561.996 230.7 561.496 226 562.796C221.3 564.196 215.5 565.096 208.8 565.496C203.4 565.996 198 566.196 192.6 566.196C187.2 566.196 181.8 567.096 176.4 568.896C166.5 572.096 157.3 576.696 148.7 582.696C140.2 588.796 132.5 595.596 125.7 603.296C109.9 621.796 100 643.096 96 667.396C95.1 670.996 94.4 674.496 94 677.896C93.5 681.296 93.5 684.796 94 688.396C94 689.796 94.3 691.996 95 695.196C95.7 698.396 96 700.396 96 701.296C96 713.896 98.5 726.296 103.4 738.396C109.2 751.896 117.1 763.696 127 773.796C136.9 783.896 148 791.996 160.4 798.096C172.8 804.196 186.1 807.896 200.2 809.196C214.4 810.596 228.7 809.196 243.1 805.196C255.2 801.596 266.8 796.696 277.9 790.296C288.9 783.996 298.9 776.396 307.9 767.296C316.9 758.296 323.2 748.096 326.8 736.596C330.8 725.196 333.3 713.296 334.6 701.196Z" fill="#FFCB00"/>
<path d="M201.3 982.896L191.5 981.696C188.6 981.696 185.8 981.496 182.9 981.096C180 980.696 177 980.296 173.7 979.896C173.3 979.896 172.9 979.996 172.5 980.196C172.1 980.396 171.5 980.496 170.7 980.496C168.6 980.496 166.1 980.296 163 979.896C159.9 979.496 157 979.096 154.1 978.696C151.2 978.296 148.6 977.796 146.1 977.196C143.6 976.596 142.2 976.296 141.8 976.296C138.5 975.096 135.8 974.496 133.5 974.496C131.2 974.496 128.5 974.096 125.2 973.296C112.5 968.796 98.8 965.396 84.1 963.196C69.4 960.996 53.2 957.196 35.6 951.896L25.2 948.796C19.5 946.796 14.1 944.496 9.20001 941.996C4.30001 939.496 1.2 934.796 0 927.896V922.996C0 921.396 0.5 919.196 1.5 916.596C2.5 913.896 3.9 911.396 5.8 908.896C7.6 906.396 9.90001 904.296 12.6 902.396C15.2 900.596 18.2 899.596 21.5 899.596C22.7 899.596 24.7 899.996 27.3 900.796C30 901.596 33 902.596 36.5 903.896C40 905.096 43.7 906.396 47.5 907.896C51.4 909.296 55 910.896 58.2 912.496L72.3 916.796C74.8 917.596 78.3 918.896 83 920.796C87.7 922.596 91.7 923.596 95 923.596C95.4 923.596 95.7 923.496 95.9 923.296C96.1 923.096 96.4 922.996 96.8 922.996C99.3 922.996 104.8 923.596 113.4 924.796C122 925.996 131.2 927.296 141 928.796C150.8 930.196 159.9 931.596 168.3 932.796C176.7 933.996 181.7 934.596 183.3 934.596H201.6C207.5 934.596 214 934.996 220.9 935.796C229.5 935.796 238.1 935.596 246.7 935.196C253.7 934.796 261.2 934.196 269.4 933.396C277.6 932.596 284.5 931.796 290.3 930.896L300.1 928.396C311.1 927.196 320.7 925.796 328.6 924.396C336.6 922.996 345.1 920.896 354.1 918.296C363.1 915.596 371.5 912.496 379.3 908.796L399.5 902.696C402 901.496 404.4 900.896 406.9 900.896C412.2 900.896 417.3 903.096 422.2 907.696C427.1 912.196 429.6 917.896 429.6 924.896C429.6 929.396 428.2 933.396 425.3 936.896C422.4 940.396 419.6 942.696 416.7 943.996C414.2 944.396 410.8 945.596 406.3 947.696C401.8 949.696 396.8 951.796 391.3 953.796C385.8 955.796 379.9 957.696 373.8 959.296C367.7 960.896 361.5 961.796 355.4 961.796C336.6 965.096 322.2 968.196 312.1 971.296C302.1 974.396 294.8 975.896 290.3 975.896C278.4 977.896 267.1 979.596 256.2 980.796C245.3 981.996 238.1 982.796 234.4 983.296L201.3 982.896Z" fill="#FFCB00"/>
<path d="M1186.2 155.596C1190.2 167.296 1193.6 178.896 1196.3 190.396C1199 201.896 1199.9 213.496 1199 225.196C1198.1 234.696 1196.4 244.196 1193.9 253.896C1191.4 263.596 1188.4 272.896 1184.8 281.896C1178 300.396 1168.1 317.496 1155.1 333.196C1142 348.996 1126.5 361.096 1108.5 369.696C1090.5 378.296 1072 384.196 1053.1 387.596C1034.2 390.996 1014.8 391.296 995 388.596C975.2 386.396 957.1 380.796 940.6 372.096C924.2 363.296 908.8 352.396 894.4 339.396C888.5 334.396 883.3 328.496 878.5 321.496C873.8 314.496 869.1 307.696 864.7 300.896C859.7 293.296 856 284.896 853.6 275.896C851.1 266.896 849.4 257.896 848.5 248.896C848 244.396 847.8 239.896 847.8 235.396C847.8 230.896 847.3 226.396 846.4 221.896C845.5 216.496 844.8 211.396 844.4 206.696C843.9 201.996 844.2 196.696 845.1 190.796C846 180.896 848.1 171.496 851.5 162.396C854.9 153.396 858.8 144.596 863.3 136.096C870.9 121.196 880.3 107.296 891.3 94.1956C902.3 81.1956 915.7 70.9956 931.5 63.7956C940.5 59.6956 949.2 55.7956 957.5 51.9956C965.8 48.1956 974.7 45.0956 984.2 42.8956C1002.2 38.7956 1021.1 37.9956 1040.9 40.1956C1076 43.3956 1106.3 54.9956 1131.7 75.2956C1157.2 95.4956 1175.4 122.296 1186.2 155.596ZM1141.6 229.196C1142.9 212.096 1141.8 195.296 1138.2 178.896C1134.6 162.496 1127.8 147.696 1117.9 134.696C1108.9 122.996 1097.9 113.296 1084.8 105.696C1083 104.796 1081.3 103.796 1079.7 102.696C1078.1 101.596 1076.4 100.796 1074.6 100.296C1070.6 98.8956 1067.3 97.8956 1064.8 97.2956C1062.3 96.5956 1059.7 95.7956 1057 94.8956C1054.3 93.9956 1052 93.0956 1050.2 92.1956C1043.4 89.9956 1037.7 89.4956 1033 90.7956C1028.3 92.1956 1022.5 93.0956 1015.8 93.4956C1010.4 93.9956 1005 94.1956 999.6 94.1956C994.2 94.1956 988.8 95.0956 983.4 96.8956C973.5 100.096 964.3 104.696 955.7 110.696C947.2 116.796 939.5 123.596 932.7 131.296C916.9 149.796 907 171.096 903 195.396C902.1 198.996 901.4 202.496 901 205.896C900.5 209.296 900.5 212.796 901 216.396C901 217.796 901.3 219.996 902 223.196C902.7 226.396 903 228.396 903 229.296C903 241.896 905.5 254.296 910.4 266.396C916.2 279.896 924.1 291.696 934 301.796C943.9 311.896 955 319.996 967.4 326.096C979.8 332.196 993.1 335.896 1007.2 337.196C1021.4 338.596 1035.7 337.196 1050.1 333.196C1062.2 329.596 1073.8 324.696 1084.9 318.296C1095.9 311.996 1105.9 304.396 1114.9 295.296C1123.9 286.296 1130.2 276.096 1133.8 264.596C1137.8 253.196 1140.3 241.296 1141.6 229.196Z" fill="#FFCB00"/>
<path d="M1008.3 510.896L998.5 509.696C995.6 509.696 992.8 509.496 989.9 509.096C987 508.696 984 508.296 980.7 507.896C980.3 507.896 979.9 507.996 979.5 508.196C979.1 508.396 978.5 508.496 977.7 508.496C975.6 508.496 973.1 508.296 970 507.896C966.9 507.496 964 507.096 961.1 506.696C958.2 506.296 955.6 505.796 953.1 505.196C950.6 504.596 949.2 504.296 948.8 504.296C945.5 503.096 942.8 502.496 940.5 502.496C938.2 502.496 935.5 502.096 932.2 501.296C919.5 496.796 905.8 493.396 891.1 491.196C876.4 488.996 860.2 485.196 842.6 479.896L832.2 476.796C826.5 474.796 821.1 472.496 816.2 469.996C811.3 467.496 808.2 462.796 807 455.896V450.996C807 449.396 807.5 447.196 808.5 444.596C809.5 441.896 810.9 439.396 812.8 436.896C814.6 434.396 816.9 432.296 819.6 430.396C822.2 428.596 825.2 427.596 828.5 427.596C829.7 427.596 831.7 427.996 834.3 428.796C837 429.596 840 430.596 843.5 431.896C847 433.096 850.7 434.396 854.5 435.896C858.4 437.296 862 438.896 865.2 440.496L879.3 444.796C881.8 445.596 885.3 446.896 890 448.796C894.7 450.596 898.7 451.596 902 451.596C902.4 451.596 902.7 451.496 902.9 451.296C903.1 451.096 903.4 450.996 903.8 450.996C906.3 450.996 911.8 451.596 920.4 452.796C929 453.996 938.2 455.296 948 456.796C957.8 458.196 966.9 459.596 975.3 460.796C983.7 461.996 988.7 462.596 990.3 462.596H1008.6C1014.5 462.596 1021 462.996 1027.9 463.796C1036.5 463.796 1045.1 463.596 1053.7 463.196C1060.7 462.796 1068.2 462.196 1076.4 461.396C1084.6 460.596 1091.5 459.796 1097.3 458.896L1107.1 456.396C1118.1 455.196 1127.7 453.796 1135.6 452.396C1143.6 450.996 1152.1 448.896 1161.1 446.296C1170.1 443.596 1178.5 440.496 1186.3 436.796L1206.5 430.696C1209 429.496 1211.4 428.896 1213.9 428.896C1219.2 428.896 1224.3 431.096 1229.2 435.696C1234.1 440.196 1236.6 445.896 1236.6 452.896C1236.6 457.396 1235.2 461.396 1232.3 464.896C1229.4 468.396 1226.6 470.696 1223.7 471.996C1221.2 472.396 1217.8 473.596 1213.3 475.696C1208.8 477.696 1203.8 479.796 1198.3 481.796C1192.8 483.796 1186.9 485.696 1180.8 487.296C1174.7 488.896 1168.5 489.796 1162.4 489.796C1143.6 493.096 1129.2 496.196 1119.1 499.296C1109.1 502.396 1101.8 503.896 1097.3 503.896C1085.4 505.896 1074.1 507.596 1063.2 508.796C1052.3 509.996 1045.1 510.796 1041.4 511.296L1008.3 510.896Z" fill="#FFCB00"/>
<path d="M1167.2 666.596C1171.2 678.296 1174.6 689.896 1177.3 701.396C1180 712.896 1180.9 724.496 1180 736.196C1179.1 745.696 1177.4 755.196 1174.9 764.896C1172.4 774.596 1169.4 783.896 1165.8 792.896C1159 811.396 1149.1 828.496 1136.1 844.196C1123 859.996 1107.5 872.096 1089.5 880.696C1071.5 889.296 1053 895.196 1034.1 898.596C1015.2 901.996 995.8 902.296 976 899.596C956.2 897.396 938.1 891.796 921.6 883.096C905.2 874.296 889.8 863.396 875.4 850.396C869.5 845.396 864.3 839.496 859.5 832.496C854.8 825.496 850.1 818.696 845.7 811.896C840.7 804.296 837 795.896 834.6 786.896C832.1 777.896 830.4 768.896 829.5 759.896C829 755.396 828.8 750.896 828.8 746.396C828.8 741.896 828.3 737.396 827.4 732.896C826.5 727.496 825.8 722.396 825.4 717.696C824.9 712.996 825.2 707.696 826.1 701.796C827 691.896 829.1 682.496 832.5 673.396C835.9 664.396 839.8 655.596 844.3 647.096C851.9 632.196 861.3 618.296 872.3 605.196C883.3 592.196 896.7 581.996 912.5 574.796C921.5 570.696 930.2 566.796 938.5 562.996C946.8 559.196 955.7 556.096 965.2 553.896C983.2 549.796 1002.1 548.996 1021.9 551.196C1057 554.396 1087.3 565.996 1112.7 586.296C1138.2 606.496 1156.4 633.296 1167.2 666.596ZM1122.6 740.196C1123.9 723.096 1122.8 706.296 1119.2 689.896C1115.6 673.496 1108.8 658.696 1098.9 645.696C1089.9 633.996 1078.9 624.296 1065.8 616.696C1064 615.796 1062.3 614.796 1060.7 613.696C1059.1 612.596 1057.4 611.796 1055.6 611.296C1051.6 609.896 1048.3 608.896 1045.8 608.296C1043.3 607.596 1040.7 606.796 1038 605.896C1035.3 604.996 1033 604.096 1031.2 603.196C1024.4 600.996 1018.7 600.496 1014 601.796C1009.3 603.196 1003.5 604.096 996.8 604.496C991.4 604.996 986 605.196 980.6 605.196C975.2 605.196 969.8 606.096 964.4 607.896C954.5 611.096 945.3 615.696 936.7 621.696C928.2 627.796 920.5 634.596 913.7 642.296C897.9 660.796 888 682.096 884 706.396C883.1 709.996 882.4 713.496 882 716.896C881.5 720.296 881.5 723.796 882 727.396C882 728.796 882.3 730.996 883 734.196C883.7 737.396 884 739.396 884 740.296C884 752.896 886.5 765.296 891.4 777.396C897.2 790.896 905.1 802.696 915 812.796C924.9 822.896 936 830.996 948.4 837.096C960.8 843.196 974.1 846.896 988.2 848.196C1002.4 849.596 1016.7 848.196 1031.1 844.196C1043.2 840.596 1054.8 835.696 1065.9 829.296C1076.9 822.996 1086.9 815.396 1095.9 806.296C1104.9 797.296 1111.2 787.096 1114.8 775.596C1118.8 764.196 1121.3 752.296 1122.6 740.196Z" fill="#FFCB00"/>
<path d="M989.3 1021.9L979.5 1020.7C976.6 1020.7 973.8 1020.5 970.9 1020.1C968 1019.7 965 1019.3 961.7 1018.9C961.3 1018.9 960.9 1019 960.5 1019.2C960.1 1019.4 959.5 1019.5 958.7 1019.5C956.6 1019.5 954.1 1019.3 951 1018.9C947.9 1018.5 945 1018.1 942.1 1017.7C939.2 1017.3 936.6 1016.8 934.1 1016.2C931.6 1015.6 930.2 1015.3 929.8 1015.3C926.5 1014.1 923.8 1013.5 921.5 1013.5C919.2 1013.5 916.5 1013.1 913.2 1012.3C900.5 1007.8 886.8 1004.4 872.1 1002.2C857.4 999.996 841.2 996.196 823.6 990.896L813.2 987.796C807.5 985.796 802.1 983.496 797.2 980.996C792.3 978.496 789.2 973.796 788 966.896V961.996C788 960.396 788.5 958.196 789.5 955.596C790.5 952.896 791.9 950.396 793.8 947.896C795.6 945.396 797.9 943.296 800.6 941.396C803.2 939.596 806.2 938.596 809.5 938.596C810.7 938.596 812.7 938.996 815.3 939.796C818 940.596 821 941.596 824.5 942.896C828 944.096 831.7 945.396 835.5 946.896C839.4 948.296 843 949.896 846.2 951.496L860.3 955.796C862.8 956.596 866.3 957.896 871 959.796C875.7 961.596 879.7 962.596 883 962.596C883.4 962.596 883.7 962.496 883.9 962.296C884.1 962.096 884.4 961.996 884.8 961.996C887.3 961.996 892.8 962.596 901.4 963.796C910 964.996 919.2 966.296 929 967.796C938.8 969.196 947.9 970.596 956.3 971.796C964.7 972.996 969.7 973.596 971.3 973.596H989.6C995.5 973.596 1002 973.996 1008.9 974.796C1017.5 974.796 1026.1 974.596 1034.7 974.196C1041.7 973.796 1049.2 973.196 1057.4 972.396C1065.6 971.596 1072.5 970.796 1078.3 969.896L1088.1 967.396C1099.1 966.196 1108.7 964.796 1116.6 963.396C1124.6 961.996 1133.1 959.896 1142.1 957.296C1151.1 954.596 1159.5 951.496 1167.3 947.796L1187.5 941.696C1190 940.496 1192.4 939.896 1194.9 939.896C1200.2 939.896 1205.3 942.096 1210.2 946.696C1215.1 951.196 1217.6 956.896 1217.6 963.896C1217.6 968.396 1216.2 972.396 1213.3 975.896C1210.4 979.396 1207.6 981.696 1204.7 982.996C1202.2 983.396 1198.8 984.596 1194.3 986.696C1189.8 988.696 1184.8 990.796 1179.3 992.796C1173.8 994.796 1167.9 996.696 1161.8 998.296C1155.7 999.896 1149.5 1000.8 1143.4 1000.8C1124.6 1004.1 1110.2 1007.2 1100.1 1010.3C1090.1 1013.4 1082.8 1014.9 1078.3 1014.9C1066.4 1016.9 1055.1 1018.6 1044.2 1019.8C1033.3 1021 1026.1 1021.8 1022.4 1022.3L989.3 1021.9Z" fill="#FFCB00"/>
<path d="M465.4 355.699C461.4 343.999 458 332.399 455.3 320.899C452.6 309.399 451.7 297.799 452.6 286.099C453.5 276.599 455.2 267.099 457.7 257.399C460.2 247.699 463.2 238.399 466.8 229.399C473.6 210.899 483.5 193.799 496.5 178.099C509.6 162.299 525.1 150.199 543.1 141.599C561.1 132.999 579.6 127.099 598.5 123.699C617.4 120.299 636.8 119.999 656.6 122.699C676.4 124.899 694.5 130.499 711 139.199C727.4 147.999 742.8 158.899 757.2 171.899C763.1 176.899 768.3 182.799 773.1 189.799C777.8 196.799 782.5 203.599 786.9 210.399C791.9 217.999 795.6 226.399 798 235.399C800.5 244.399 802.2 253.399 803.1 262.399C803.6 266.899 803.8 271.399 803.8 275.899C803.8 280.399 804.3 284.899 805.2 289.399C806.1 294.799 806.8 299.899 807.2 304.599C807.7 309.299 807.4 314.599 806.5 320.499C805.6 330.399 803.5 339.799 800.1 348.899C796.7 357.899 792.8 366.699 788.3 375.199C780.7 390.099 771.3 403.999 760.3 417.099C749.3 430.099 735.9 440.299 720.1 447.499C711.1 451.599 702.4 455.499 694.1 459.299C685.8 463.099 676.9 466.199 667.4 468.399C649.4 472.499 630.5 473.299 610.7 471.099C575.6 467.899 545.3 456.299 519.9 435.999C494.4 415.799 476.2 388.999 465.4 355.699ZM510 282.099C508.7 299.199 509.8 315.999 513.4 332.399C517 348.799 523.8 363.599 533.7 376.599C542.7 388.299 553.7 397.999 566.8 405.599C568.6 406.499 570.3 407.499 571.9 408.599C573.5 409.699 575.2 410.499 577 410.999C581 412.399 584.3 413.399 586.8 413.999C589.3 414.699 591.9 415.499 594.6 416.399C597.3 417.299 599.6 418.199 601.4 419.099C608.2 421.299 613.9 421.799 618.6 420.499C623.3 419.099 629.1 418.199 635.8 417.799C641.2 417.299 646.6 417.099 652 417.099C657.4 417.099 662.8 416.199 668.2 414.399C678.1 411.199 687.3 406.599 695.9 400.599C704.4 394.499 712.1 387.699 718.9 379.999C734.7 361.499 744.6 340.199 748.6 315.899C749.5 312.299 750.2 308.799 750.6 305.399C751.1 301.999 751.1 298.499 750.6 294.899C750.6 293.499 750.3 291.299 749.6 288.099C748.9 284.899 748.6 282.899 748.6 281.999C748.6 269.399 746.1 256.999 741.2 244.899C735.4 231.399 727.5 219.599 717.6 209.499C707.7 199.399 696.6 191.299 684.2 185.199C671.8 179.099 658.5 175.399 644.4 174.099C630.2 172.699 615.9 174.099 601.5 178.099C589.4 181.699 577.8 186.599 566.7 192.999C555.7 199.299 545.7 206.899 536.7 215.999C527.7 224.999 521.4 235.199 517.8 246.699C513.8 258.099 511.3 269.999 510 282.099Z" fill="#FFCB00"/>
<path d="M643.3 0.399183L653.1 1.5992C656 1.5992 658.8 1.79923 661.7 2.19923C664.6 2.59923 667.6 2.99918 670.9 3.39919C671.3 3.39919 671.7 3.2992 672.1 3.0992C672.5 2.8992 673.1 2.79921 673.9 2.79921C676 2.79921 678.5 2.99919 681.6 3.39919C684.7 3.79919 687.6 4.1992 690.5 4.5992C693.4 4.9992 696 5.4992 698.5 6.0992C701 6.6992 702.4 6.99922 702.8 6.99922C706.1 8.19923 708.8 8.79921 711.1 8.79921C713.4 8.79921 716.1 9.19923 719.4 9.99923C732.1 14.4992 745.8 17.8992 760.5 20.0992C775.2 22.2992 791.4 26.0992 809 31.3992L819.4 34.4992C825.1 36.4992 830.5 38.7992 835.4 41.2992C840.3 43.7992 843.4 48.4992 844.6 55.3992L844.6 60.2992C844.6 61.8992 844.1 64.0992 843.1 66.6992C842.1 69.3992 840.7 71.8992 838.8 74.3992C837 76.8992 834.7 78.9992 832 80.8992C829.4 82.6992 826.4 83.6992 823.1 83.6992C821.9 83.6992 819.9 83.2992 817.3 82.4992C814.6 81.6992 811.6 80.6992 808.1 79.3992C804.6 78.1992 800.9 76.8992 797.1 75.3992C793.2 73.9992 789.6 72.3992 786.4 70.7992L772.3 66.4992C769.8 65.6992 766.3 64.3992 761.6 62.4992C756.9 60.6992 752.9 59.6992 749.6 59.6992C749.2 59.6992 748.9 59.7992 748.7 59.9992C748.5 60.1992 748.2 60.2992 747.8 60.2992C745.3 60.2992 739.8 59.6992 731.2 58.4992C722.6 57.2992 713.4 55.9992 703.6 54.4992C693.8 53.0992 684.7 51.6992 676.3 50.4992C667.9 49.2992 662.9 48.6992 661.3 48.6992L643 48.6992C637.1 48.6992 630.6 48.2992 623.7 47.4992C615.1 47.4992 606.5 47.6992 597.9 48.0992C590.9 48.4992 583.4 49.0992 575.2 49.8992C567 50.6992 560.1 51.4992 554.3 52.3992L544.5 54.8992C533.5 56.0992 523.9 57.4992 516 58.8992C508 60.2992 499.5 62.3992 490.5 64.9992C481.5 67.6992 473.1 70.7992 465.3 74.4992L445.1 80.5992C442.6 81.7992 440.2 82.3992 437.7 82.3992C432.4 82.3992 427.3 80.1992 422.4 75.5992C417.5 71.0992 415 65.3992 415 58.3992C415 53.8992 416.4 49.8992 419.3 46.3992C422.2 42.8992 425 40.5992 427.9 39.2992C430.4 38.8992 433.8 37.6992 438.3 35.5992C442.8 33.5992 447.8 31.4992 453.3 29.4992C458.8 27.4992 464.7 25.5992 470.8 23.9992C476.9 22.3992 483.1 21.4992 489.2 21.4992C508 18.1992 522.4 15.0992 532.5 11.9992C542.5 8.89921 549.8 7.39917 554.3 7.39918C566.2 5.39918 577.5 3.69921 588.4 2.49921C599.3 1.29922 606.5 0.499216 610.2 -0.000783431L643.3 0.399183Z" fill="#FFCB00"/>
<path d="M446.4 866.699C442.4 854.999 439 843.399 436.3 831.899C433.6 820.399 432.7 808.799 433.6 797.099C434.5 787.599 436.2 778.099 438.7 768.399C441.2 758.699 444.2 749.399 447.8 740.399C454.6 721.899 464.5 704.799 477.5 689.099C490.6 673.299 506.1 661.199 524.1 652.599C542.1 643.999 560.6 638.099 579.5 634.699C598.4 631.299 617.8 630.999 637.6 633.699C657.4 635.899 675.5 641.499 692 650.199C708.4 658.999 723.8 669.899 738.2 682.899C744.1 687.899 749.3 693.799 754.1 700.799C758.8 707.799 763.5 714.599 767.9 721.399C772.9 728.999 776.6 737.399 779 746.399C781.5 755.399 783.2 764.399 784.1 773.399C784.6 777.899 784.8 782.399 784.8 786.899C784.8 791.399 785.3 795.899 786.2 800.399C787.1 805.799 787.8 810.899 788.2 815.599C788.7 820.299 788.4 825.599 787.5 831.499C786.6 841.399 784.5 850.799 781.1 859.899C777.7 868.899 773.8 877.699 769.3 886.199C761.7 901.099 752.3 914.999 741.3 928.099C730.3 941.099 716.9 951.299 701.1 958.499C692.1 962.599 683.4 966.499 675.1 970.299C666.8 974.099 657.9 977.199 648.4 979.399C630.4 983.499 611.5 984.299 591.7 982.099C556.6 978.899 526.3 967.299 500.9 946.999C475.4 926.799 457.2 899.999 446.4 866.699ZM491 793.099C489.7 810.199 490.8 826.999 494.4 843.399C498 859.799 504.8 874.599 514.7 887.599C523.7 899.299 534.7 908.999 547.8 916.599C549.6 917.499 551.3 918.499 552.9 919.599C554.5 920.699 556.2 921.499 558 921.999C562 923.399 565.3 924.399 567.8 924.999C570.3 925.699 572.9 926.499 575.6 927.399C578.3 928.299 580.6 929.199 582.4 930.099C589.2 932.299 594.9 932.799 599.6 931.499C604.3 930.099 610.1 929.199 616.8 928.799C622.2 928.299 627.6 928.099 633 928.099C638.4 928.099 643.8 927.199 649.2 925.399C659.1 922.199 668.3 917.599 676.9 911.599C685.4 905.499 693.1 898.699 699.9 890.999C715.7 872.499 725.6 851.199 729.6 826.899C730.5 823.299 731.2 819.799 731.6 816.399C732.1 812.999 732.1 809.499 731.6 805.899C731.6 804.499 731.3 802.299 730.6 799.099C729.9 795.899 729.6 793.899 729.6 792.999C729.6 780.399 727.1 767.999 722.2 755.899C716.4 742.399 708.5 730.599 698.6 720.499C688.7 710.399 677.6 702.299 665.2 696.199C652.8 690.099 639.5 686.399 625.4 685.099C611.2 683.699 596.9 685.099 582.5 689.099C570.4 692.699 558.8 697.599 547.7 703.999C536.7 710.299 526.7 717.899 517.7 726.999C508.7 735.999 502.4 746.199 498.8 757.699C494.8 769.099 492.3 780.999 491 793.099Z" fill="#FFCB00"/>
<path d="M624.3 511.399L634.1 512.599C637 512.599 639.8 512.799 642.7 513.199C645.6 513.599 648.6 513.999 651.9 514.399C652.3 514.399 652.7 514.299 653.1 514.099C653.5 513.899 654.1 513.799 654.9 513.799C657 513.799 659.5 513.999 662.6 514.399C665.7 514.799 668.6 515.199 671.5 515.599C674.4 515.999 677 516.499 679.5 517.099C682 517.699 683.4 517.999 683.8 517.999C687.1 519.199 689.8 519.799 692.1 519.799C694.4 519.799 697.1 520.199 700.4 520.999C713.1 525.499 726.8 528.899 741.5 531.099C756.2 533.299 772.4 537.099 790 542.399L800.4 545.499C806.1 547.499 811.5 549.799 816.4 552.299C821.3 554.799 824.4 559.499 825.6 566.399L825.6 571.299C825.6 572.899 825.1 575.099 824.1 577.699C823.1 580.399 821.7 582.899 819.8 585.399C818 587.899 815.7 589.999 813 591.899C810.4 593.699 807.4 594.699 804.1 594.699C802.9 594.699 800.9 594.299 798.3 593.499C795.6 592.699 792.6 591.699 789.1 590.399C785.6 589.199 781.9 587.899 778.1 586.399C774.2 584.999 770.6 583.399 767.4 581.799L753.3 577.499C750.8 576.699 747.3 575.399 742.6 573.499C737.9 571.699 733.9 570.699 730.6 570.699C730.2 570.699 729.9 570.799 729.7 570.999C729.5 571.199 729.2 571.299 728.8 571.299C726.3 571.299 720.8 570.699 712.2 569.499C703.6 568.299 694.4 566.999 684.6 565.499C674.8 564.099 665.7 562.699 657.3 561.499C648.9 560.299 643.9 559.699 642.3 559.699L624 559.699C618.1 559.699 611.6 559.299 604.7 558.499C596.1 558.499 587.5 558.699 578.9 559.099C571.9 559.499 564.4 560.099 556.2 560.899C548 561.699 541.1 562.499 535.3 563.399L525.5 565.899C514.5 567.099 504.9 568.499 497 569.899C489 571.299 480.5 573.399 471.5 575.999C462.5 578.699 454.1 581.799 446.3 585.499L426.1 591.599C423.6 592.799 421.2 593.399 418.7 593.399C413.4 593.399 408.3 591.199 403.4 586.599C398.5 582.099 396 576.399 396 569.399C396 564.899 397.4 560.899 400.3 557.399C403.2 553.899 406 551.599 408.9 550.299C411.4 549.899 414.8 548.699 419.3 546.599C423.8 544.599 428.8 542.499 434.3 540.499C439.8 538.499 445.7 536.599 451.8 534.999C457.9 533.399 464.1 532.499 470.2 532.499C489 529.199 503.4 526.099 513.5 522.999C523.5 519.899 530.8 518.399 535.3 518.399C547.2 516.399 558.5 514.699 569.4 513.499C580.3 512.299 587.5 511.499 591.2 510.999L624.3 511.399Z" fill="#FFCB00"/>
<path d="M1253.4 394.699C1249.4 382.999 1246 371.399 1243.3 359.899C1240.6 348.399 1239.7 336.799 1240.6 325.099C1241.5 315.599 1243.2 306.099 1245.7 296.399C1248.2 286.699 1251.2 277.399 1254.8 268.399C1261.6 249.899 1271.5 232.799 1284.5 217.099C1297.6 201.299 1313.1 189.199 1331.1 180.599C1349.1 171.999 1367.6 166.099 1386.5 162.699C1405.4 159.299 1424.8 158.999 1444.6 161.699C1464.4 163.899 1482.5 169.499 1499 178.199C1515.4 186.999 1530.8 197.899 1545.2 210.899C1551.1 215.899 1556.3 221.799 1561.1 228.799C1565.8 235.799 1570.5 242.599 1574.9 249.399C1579.9 256.999 1583.6 265.399 1586 274.399C1588.5 283.399 1590.2 292.399 1591.1 301.399C1591.6 305.899 1591.8 310.399 1591.8 314.899C1591.8 319.399 1592.3 323.899 1593.2 328.399C1594.1 333.799 1594.8 338.899 1595.2 343.599C1595.7 348.299 1595.4 353.599 1594.5 359.499C1593.6 369.399 1591.5 378.799 1588.1 387.899C1584.7 396.899 1580.8 405.699 1576.3 414.199C1568.7 429.099 1559.3 442.999 1548.3 456.099C1537.3 469.099 1523.9 479.299 1508.1 486.499C1499.1 490.599 1490.4 494.499 1482.1 498.299C1473.8 502.099 1464.9 505.199 1455.4 507.399C1437.4 511.499 1418.5 512.299 1398.7 510.099C1363.6 506.899 1333.3 495.299 1307.9 474.999C1282.4 454.799 1264.2 427.999 1253.4 394.699ZM1298 321.099C1296.7 338.199 1297.8 354.999 1301.4 371.399C1305 387.799 1311.8 402.599 1321.7 415.599C1330.7 427.299 1341.7 436.999 1354.8 444.599C1356.6 445.499 1358.3 446.499 1359.9 447.599C1361.5 448.699 1363.2 449.499 1365 449.999C1369 451.399 1372.3 452.399 1374.8 452.999C1377.3 453.699 1379.9 454.499 1382.6 455.399C1385.3 456.299 1387.6 457.199 1389.4 458.099C1396.2 460.299 1401.9 460.799 1406.6 459.499C1411.3 458.099 1417.1 457.199 1423.8 456.799C1429.2 456.299 1434.6 456.099 1440 456.099C1445.4 456.099 1450.8 455.199 1456.2 453.399C1466.1 450.199 1475.3 445.599 1483.9 439.599C1492.4 433.499 1500.1 426.699 1506.9 418.999C1522.7 400.499 1532.6 379.199 1536.6 354.899C1537.5 351.299 1538.2 347.799 1538.6 344.399C1539.1 340.999 1539.1 337.499 1538.6 333.899C1538.6 332.499 1538.3 330.299 1537.6 327.099C1536.9 323.899 1536.6 321.899 1536.6 320.999C1536.6 308.399 1534.1 295.999 1529.2 283.899C1523.4 270.399 1515.5 258.599 1505.6 248.499C1495.7 238.399 1484.6 230.299 1472.2 224.199C1459.8 218.099 1446.5 214.399 1432.4 213.099C1418.2 211.699 1403.9 213.099 1389.5 217.099C1377.4 220.699 1365.8 225.599 1354.7 231.999C1343.7 238.299 1333.7 245.899 1324.7 254.999C1315.7 263.999 1309.4 274.199 1305.8 285.699C1301.8 297.099 1299.3 308.999 1298 321.099Z" fill="#FFCB00"/>
<path d="M1431.3 39.3992L1441.1 40.5992C1444 40.5992 1446.8 40.7992 1449.7 41.1992C1452.6 41.5992 1455.6 41.9992 1458.9 42.3992C1459.3 42.3992 1459.7 42.2992 1460.1 42.0992C1460.5 41.8992 1461.1 41.7992 1461.9 41.7992C1464 41.7992 1466.5 41.9992 1469.6 42.3992C1472.7 42.7992 1475.6 43.1992 1478.5 43.5992C1481.4 43.9992 1484 44.4992 1486.5 45.0992C1489 45.6992 1490.4 45.9992 1490.8 45.9992C1494.1 47.1992 1496.8 47.7992 1499.1 47.7992C1501.4 47.7992 1504.1 48.1992 1507.4 48.9992C1520.1 53.4992 1533.8 56.8992 1548.5 59.0992C1563.2 61.2992 1579.4 65.0992 1597 70.3992L1607.4 73.4992C1613.1 75.4992 1618.5 77.7992 1623.4 80.2992C1628.3 82.7992 1631.4 87.4992 1632.6 94.3992L1632.6 99.2992C1632.6 100.899 1632.1 103.099 1631.1 105.699C1630.1 108.399 1628.7 110.899 1626.8 113.399C1625 115.899 1622.7 117.999 1620 119.899C1617.4 121.699 1614.4 122.699 1611.1 122.699C1609.9 122.699 1607.9 122.299 1605.3 121.499C1602.6 120.699 1599.6 119.699 1596.1 118.399C1592.6 117.199 1588.9 115.899 1585.1 114.399C1581.2 112.999 1577.6 111.399 1574.4 109.799L1560.3 105.499C1557.8 104.699 1554.3 103.399 1549.6 101.499C1544.9 99.6992 1540.9 98.6992 1537.6 98.6992C1537.2 98.6992 1536.9 98.7992 1536.7 98.9992C1536.5 99.1992 1536.2 99.2992 1535.8 99.2992C1533.3 99.2992 1527.8 98.6992 1519.2 97.4992C1510.6 96.2992 1501.4 94.9992 1491.6 93.4992C1481.8 92.0992 1472.7 90.6992 1464.3 89.4992C1455.9 88.2992 1450.9 87.6992 1449.3 87.6992L1431 87.6992C1425.1 87.6992 1418.6 87.2992 1411.7 86.4992C1403.1 86.4992 1394.5 86.6992 1385.9 87.0992C1378.9 87.4992 1371.4 88.0992 1363.2 88.8992C1355 89.6992 1348.1 90.4992 1342.3 91.3992L1332.5 93.8992C1321.5 95.0992 1311.9 96.4992 1304 97.8992C1296 99.2992 1287.5 101.399 1278.5 103.999C1269.5 106.699 1261.1 109.799 1253.3 113.499L1233.1 119.599C1230.6 120.799 1228.2 121.399 1225.7 121.399C1220.4 121.399 1215.3 119.199 1210.4 114.599C1205.5 110.099 1203 104.399 1203 97.3992C1203 92.8992 1204.4 88.8992 1207.3 85.3992C1210.2 81.8992 1213 79.5992 1215.9 78.2992C1218.4 77.8992 1221.8 76.6992 1226.3 74.5992C1230.8 72.5992 1235.8 70.4992 1241.3 68.4992C1246.8 66.4992 1252.7 64.5992 1258.8 62.9992C1264.9 61.3992 1271.1 60.4992 1277.2 60.4992C1296 57.1992 1310.4 54.0992 1320.5 50.9992C1330.5 47.8992 1337.8 46.3992 1342.3 46.3992C1354.2 44.3992 1365.5 42.6992 1376.4 41.4992C1387.3 40.2992 1394.5 39.4992 1398.2 38.9992L1431.3 39.3992Z" fill="#FFCB00"/>
<path d="M1234.4 905.699C1230.4 893.999 1227 882.399 1224.3 870.899C1221.6 859.399 1220.7 847.799 1221.6 836.099C1222.5 826.599 1224.2 817.099 1226.7 807.399C1229.2 797.699 1232.2 788.399 1235.8 779.399C1242.6 760.899 1252.5 743.799 1265.5 728.099C1278.6 712.299 1294.1 700.199 1312.1 691.599C1330.1 682.999 1348.6 677.099 1367.5 673.699C1386.4 670.299 1405.8 669.999 1425.6 672.699C1445.4 674.899 1463.5 680.499 1480 689.199C1496.4 697.999 1511.8 708.899 1526.2 721.899C1532.1 726.899 1537.3 732.799 1542.1 739.799C1546.8 746.799 1551.5 753.599 1555.9 760.399C1560.9 767.999 1564.6 776.399 1567 785.399C1569.5 794.399 1571.2 803.399 1572.1 812.399C1572.6 816.899 1572.8 821.399 1572.8 825.899C1572.8 830.399 1573.3 834.899 1574.2 839.399C1575.1 844.799 1575.8 849.899 1576.2 854.599C1576.7 859.299 1576.4 864.599 1575.5 870.499C1574.6 880.399 1572.5 889.799 1569.1 898.899C1565.7 907.899 1561.8 916.699 1557.3 925.199C1549.7 940.099 1540.3 953.999 1529.3 967.099C1518.3 980.099 1504.9 990.299 1489.1 997.499C1480.1 1001.6 1471.4 1005.5 1463.1 1009.3C1454.8 1013.1 1445.9 1016.2 1436.4 1018.4C1418.4 1022.5 1399.5 1023.3 1379.7 1021.1C1344.6 1017.9 1314.3 1006.3 1288.9 985.999C1263.4 965.799 1245.2 938.999 1234.4 905.699ZM1279 832.099C1277.7 849.199 1278.8 865.999 1282.4 882.399C1286 898.799 1292.8 913.599 1302.7 926.599C1311.7 938.299 1322.7 947.999 1335.8 955.599C1337.6 956.499 1339.3 957.499 1340.9 958.599C1342.5 959.699 1344.2 960.499 1346 960.999C1350 962.399 1353.3 963.399 1355.8 963.999C1358.3 964.699 1360.9 965.499 1363.6 966.399C1366.3 967.299 1368.6 968.199 1370.4 969.099C1377.2 971.299 1382.9 971.799 1387.6 970.499C1392.3 969.099 1398.1 968.199 1404.8 967.799C1410.2 967.299 1415.6 967.099 1421 967.099C1426.4 967.099 1431.8 966.199 1437.2 964.399C1447.1 961.199 1456.3 956.599 1464.9 950.599C1473.4 944.499 1481.1 937.699 1487.9 929.999C1503.7 911.499 1513.6 890.199 1517.6 865.899C1518.5 862.299 1519.2 858.799 1519.6 855.399C1520.1 851.999 1520.1 848.499 1519.6 844.899C1519.6 843.499 1519.3 841.299 1518.6 838.099C1517.9 834.899 1517.6 832.899 1517.6 831.999C1517.6 819.399 1515.1 806.999 1510.2 794.899C1504.4 781.399 1496.5 769.599 1486.6 759.499C1476.7 749.399 1465.6 741.299 1453.2 735.199C1440.8 729.099 1427.5 725.399 1413.4 724.099C1399.2 722.699 1384.9 724.099 1370.5 728.099C1358.4 731.699 1346.8 736.599 1335.7 742.999C1324.7 749.299 1314.7 756.899 1305.7 765.999C1296.7 774.999 1290.4 785.199 1286.8 796.699C1282.8 808.099 1280.3 819.999 1279 832.099Z" fill="#FFCB00"/>
<path d="M1412.3 550.399L1422.1 551.599C1425 551.599 1427.8 551.799 1430.7 552.199C1433.6 552.599 1436.6 552.999 1439.9 553.399C1440.3 553.399 1440.7 553.299 1441.1 553.099C1441.5 552.899 1442.1 552.799 1442.9 552.799C1445 552.799 1447.5 552.999 1450.6 553.399C1453.7 553.799 1456.6 554.199 1459.5 554.599C1462.4 554.999 1465 555.499 1467.5 556.099C1470 556.699 1471.4 556.999 1471.8 556.999C1475.1 558.199 1477.8 558.799 1480.1 558.799C1482.4 558.799 1485.1 559.199 1488.4 559.999C1501.1 564.499 1514.8 567.899 1529.5 570.099C1544.2 572.299 1560.4 576.099 1578 581.399L1588.4 584.499C1594.1 586.499 1599.5 588.799 1604.4 591.299C1609.3 593.799 1612.4 598.499 1613.6 605.399L1613.6 610.299C1613.6 611.899 1613.1 614.099 1612.1 616.699C1611.1 619.399 1609.7 621.899 1607.8 624.399C1606 626.899 1603.7 628.999 1601 630.899C1598.4 632.699 1595.4 633.699 1592.1 633.699C1590.9 633.699 1588.9 633.299 1586.3 632.499C1583.6 631.699 1580.6 630.699 1577.1 629.399C1573.6 628.199 1569.9 626.899 1566.1 625.399C1562.2 623.999 1558.6 622.399 1555.4 620.799L1541.3 616.499C1538.8 615.699 1535.3 614.399 1530.6 612.499C1525.9 610.699 1521.9 609.699 1518.6 609.699C1518.2 609.699 1517.9 609.799 1517.7 609.999C1517.5 610.199 1517.2 610.299 1516.8 610.299C1514.3 610.299 1508.8 609.699 1500.2 608.499C1491.6 607.299 1482.4 605.999 1472.6 604.499C1462.8 603.099 1453.7 601.699 1445.3 600.499C1436.9 599.299 1431.9 598.699 1430.3 598.699L1412 598.699C1406.1 598.699 1399.6 598.299 1392.7 597.499C1384.1 597.499 1375.5 597.699 1366.9 598.099C1359.9 598.499 1352.4 599.099 1344.2 599.899C1336 600.699 1329.1 601.499 1323.3 602.399L1313.5 604.899C1302.5 606.099 1292.9 607.499 1285 608.899C1277 610.299 1268.5 612.399 1259.5 614.999C1250.5 617.699 1242.1 620.799 1234.3 624.499L1214.1 630.599C1211.6 631.799 1209.2 632.399 1206.7 632.399C1201.4 632.399 1196.3 630.199 1191.4 625.599C1186.5 621.099 1184 615.399 1184 608.399C1184 603.899 1185.4 599.899 1188.3 596.399C1191.2 592.899 1194 590.599 1196.9 589.299C1199.4 588.899 1202.8 587.699 1207.3 585.599C1211.8 583.599 1216.8 581.499 1222.3 579.499C1227.8 577.499 1233.7 575.599 1239.8 573.999C1245.9 572.399 1252.1 571.499 1258.2 571.499C1277 568.199 1291.4 565.099 1301.5 561.999C1311.5 558.899 1318.8 557.399 1323.3 557.399C1335.2 555.399 1346.5 553.699 1357.4 552.499C1368.3 551.299 1375.5 550.499 1379.2 549.999L1412.3 550.399Z" fill="#FFCB00"/>
</svg>
